<svg xmlns="http://www.w3.org/2000/svg" fill="none" viewBox="0 0 146 64" height="64" width="146">
<g clip-path="url(#clip0_18823_1146)">
<path fill="#0054CC" d="M137.176 23.8027L123.738 40.6543C121.995 39.5521 120.467 38.063 119.293 36.2246L136.194 22.8157C136.718 22.3992 136.532 21.5628 135.88 21.4066L121.533 17.9708C122.343 17.2048 123.255 16.52 124.265 15.9387C131.195 11.9478 140.056 14.3162 144.057 21.2285C147.342 26.9033 146.329 33.8758 142.027 38.399L138.589 24.1151C138.432 23.4647 137.593 23.2792 137.176 23.8027ZM129.459 42.762C132.141 43.1464 134.948 42.7848 137.55 41.5908V25.4539L129.459 42.762ZM118.332 22.4426C117.186 24.9485 116.766 27.7575 117.166 30.5227L134.538 22.4426H118.332Z"></path>
<path fill="black" d="M97.5665 48.8327L99.1877 46.5885C99.7038 47.1165 100.286 47.4466 101.133 47.4466C102.622 47.4466 103.376 46.8328 104.336 44.7207L104.614 44.0936L98.7112 30.5235H101.603L106.016 40.9453L110.232 30.5235H113.103L106.698 45.4732C105.282 48.8063 103.846 50.0008 101.16 50.0008C99.7966 50.0008 98.473 49.5388 97.5665 48.8327ZM2.67323 27.9693V33.6521H8.39699C10.7328 33.6521 11.8444 32.4179 11.8444 30.748C11.8444 29.0385 10.5871 27.9693 8.29105 27.9693H2.67323ZM0 25.5073H8.29767C12.1355 25.5073 14.5573 27.494 14.5573 30.748C14.5573 32.5366 13.6971 34.0018 12.0693 34.8203C13.8294 35.6255 14.8353 37.1568 14.8353 39.2623C14.8353 42.7802 12.3142 44.7801 8.44329 44.7801L0 44.7801V25.5073ZM2.67323 36.1602V42.2918H8.43668C10.7394 42.2918 12.1157 41.0641 12.1157 39.2161C12.1157 37.3416 10.9181 36.1602 8.25136 36.1602H2.67323ZM28.8256 37.6254C28.8256 34.9061 26.7677 32.6687 23.982 32.6687C21.2491 32.6687 19.1317 34.8468 19.1317 37.6254C19.1317 40.4239 21.2491 42.602 23.982 42.602C26.7677 42.602 28.8256 40.3777 28.8256 37.6254ZM16.4585 37.6518C16.4585 33.1966 19.8001 30.2332 23.6775 30.2332C25.6296 30.2332 27.575 31.144 28.6734 32.6422V30.5235H31.307V44.7801H28.6668V42.5822C27.5486 44.1333 25.6031 45.0705 23.6577 45.0705C19.8464 45.0705 16.4585 42.0872 16.4585 37.6518ZM34.2904 24.4902H36.9967V44.7801H34.2904V24.4902ZM37.7237 48.8327L39.3449 46.5885C39.861 47.1165 40.4432 47.4466 41.2902 47.4466C42.7791 47.4466 43.5334 46.8328 44.4929 44.7207L44.7707 44.0936L38.8684 30.5235H41.76L46.1736 40.9453L50.3887 30.5235H53.2604L46.8552 45.4732C45.4391 48.8063 44.0032 50.0008 41.3167 50.0008C39.9537 50.0008 38.6302 49.5388 37.7237 48.8327ZM65.7475 37.6254C65.7475 34.9061 63.6896 32.6687 60.9039 32.6687C58.171 32.6687 56.0536 34.8468 56.0536 37.6254C56.0536 40.4239 58.171 42.602 60.9039 42.602C63.6896 42.602 65.7475 40.3777 65.7475 37.6254ZM53.3804 37.6518C53.3804 33.1966 56.722 30.2332 60.5994 30.2332C62.5515 30.2332 64.4969 31.144 65.5953 32.6422V30.5235H68.2289V44.7801H65.5887V42.5822C64.4705 44.1333 62.525 45.0705 60.5796 45.0705C56.7683 45.0705 53.3804 42.0872 53.3804 37.6518ZM70.0543 41.9684L72.4497 40.5626C73.3496 41.9222 74.6265 42.7274 76.4992 42.7274C78.4446 42.7274 79.4703 41.7704 79.4703 40.6021C79.4703 39.2755 77.6705 38.9784 75.7383 38.5759C73.3165 38.0808 70.7358 37.3218 70.7358 34.4309C70.7358 32.2132 72.8267 30.2201 76.1948 30.2068C78.8614 30.1963 80.6812 31.1836 81.9318 32.8403L79.6357 34.1933C78.8879 33.1175 77.8028 32.4508 76.1948 32.4508C74.3355 32.4508 73.4753 33.3023 73.4753 34.3847C73.4753 35.6057 74.8762 35.8853 77.0617 36.345C79.4616 36.8498 82.1634 37.6254 82.1634 40.5757C82.1634 42.701 80.2776 45.0837 76.3867 45.0705C73.343 45.0602 71.285 43.9682 70.0543 41.9684ZM84.3269 30.5235H86.9605V32.6026C87.9398 31.177 89.5742 30.2332 91.6188 30.2332C95.2715 30.2332 97.5477 32.6224 97.5477 36.5495V44.7801H94.8348V36.7344C94.8348 34.2197 93.4981 32.6027 91.0166 32.6027C88.7537 32.6027 87.0135 34.2923 87.0135 36.8994V44.7801H84.3269V30.5235Z"></path>
</g>
<defs>
<clipPath id="clip0_18823_1146">
<rect transform="translate(0 14)" fill="white" height="36" width="146"></rect>
</clipPath>
</defs>
</svg>
