<svg xmlns="http://www.w3.org/2000/svg" fill="none" viewBox="0 0 145 64" height="64" width="145">
<g clip-path="url(#clip0_18823_1934)">
<mask height="20" width="145" y="22" x="0" maskUnits="userSpaceOnUse" style="mask-type:luminance" id="mask0_18823_1934">
<path fill="white" d="M144.753 22.3027H0.24707V41.6967H144.753V22.3027Z"></path>
</mask>
<g mask="url(#mask0_18823_1934)">
<path fill="#010101" d="M32.6778 22.3176H32.3659C30.7244 22.3151 29.3923 23.6488 29.3923 25.2955V31.9554C29.3923 33.2853 28.2966 34.3626 26.9925 34.3626C26.2178 34.3626 25.4443 33.9714 24.9854 33.3148L18.2043 23.6001C17.6418 22.7934 16.7265 22.3125 15.7357 22.3125C14.19 22.3125 12.799 23.6309 12.799 25.2583V31.9567C12.799 33.2866 11.7124 34.3639 10.3994 34.3639C9.62206 34.3639 8.84987 33.9727 8.39089 33.3161L0.8032 22.4459C0.631894 22.2009 0.24707 22.3215 0.24707 22.6216V28.4299C0.24707 28.7236 0.336562 29.0083 0.504045 29.2494L7.97027 39.9465C8.41131 40.5787 9.06206 41.0481 9.81255 41.2187C11.6906 41.647 13.4191 40.1966 13.4191 38.3485V31.654C13.4191 30.3241 14.493 29.2468 15.8187 29.2468H15.8226C16.6217 29.2468 17.3709 29.638 17.8298 30.2946L24.6107 40.0081C25.1745 40.8159 26.0426 41.2957 27.0782 41.2957C28.6584 41.2957 30.0122 39.9759 30.0122 38.3498V31.6527C30.0122 30.3228 31.0861 29.2455 32.4119 29.2455H32.6765C32.8428 29.2455 32.977 29.1109 32.977 28.9442V22.6177C32.977 22.451 32.8428 22.3163 32.6765 22.3163L32.6778 22.3176ZM71.6057 27.3295H69.946C69.7775 27.3295 69.6409 27.4668 69.6409 27.636V40.9865C69.6409 41.1558 69.7775 41.2931 69.946 41.2931H71.6057C71.7743 41.2931 71.9114 41.1558 71.9114 40.9865V27.636C71.9114 27.4668 71.7743 27.3295 71.6057 27.3295ZM69.8911 22.3138H71.6595C71.828 22.3138 71.9652 22.451 71.9652 22.6203V24.8005C71.9652 24.9698 71.828 25.107 71.6595 25.107H69.8911C69.7225 25.107 69.586 24.9698 69.586 24.8005V22.6203C69.586 22.451 69.7225 22.3138 69.8911 22.3138ZM81.5382 26.9499C79.6731 26.9499 78.3216 27.6001 77.4564 28.5504C77.1785 28.8326 76.6994 28.6351 76.6994 28.2388V27.636C76.6994 27.4668 76.5623 27.3295 76.3937 27.3295H74.7625C74.5939 27.3295 74.4568 27.4668 74.4568 27.636V40.9865C74.4568 41.1558 74.5939 41.2931 74.7625 41.2931H76.3949C76.5635 41.2931 76.7006 41.1558 76.7006 40.9865V32.5351C76.7006 29.6059 77.2679 28.9557 80.3776 28.9557C83.4866 28.9557 83.9996 29.4713 83.9996 32.3991V40.9853C83.9996 41.1545 84.1361 41.2917 84.3047 41.2917H85.9643C86.1329 41.2917 86.27 41.1545 86.27 40.9853V31.7746C86.27 28.4389 84.3778 26.9474 81.5394 26.9474V26.9499H81.5382ZM98.4905 28.7402C98.7684 29.0224 99.2475 28.8249 99.2475 28.4286V22.6216C99.2475 22.4523 99.3847 22.3151 99.5532 22.3151H101.186C101.354 22.3151 101.491 22.4523 101.491 22.6216V40.9878C101.491 41.1571 101.354 41.2944 101.186 41.2944H99.5532C99.3847 41.2944 99.2475 41.1571 99.2475 40.9878V40.1953C99.2644 39.7901 98.7745 39.5951 98.4905 39.8836C97.7069 40.8595 96.1935 41.6727 94.1659 41.6727C90.5989 41.6727 88.2734 39.1244 88.2734 34.3793C88.2734 29.3635 90.8671 26.9499 94.2462 26.9499C96.2738 26.9499 97.7341 27.7643 98.4905 28.7402ZM90.7318 34.3241C90.7318 38.9064 91.2997 39.5848 95.0033 39.5848C98.6802 39.5848 99.2475 38.9064 99.2475 34.3241C99.2475 29.7419 98.7068 29.0365 95.0033 29.0365C91.2997 29.0365 90.7318 29.7419 90.7318 34.3241ZM110.98 33.4585L108.306 32.9981C106.331 32.6454 105.98 32.049 105.98 31.0179C106.007 29.6072 106.548 28.9031 109.17 28.9031C111.626 28.9031 112.412 29.6316 112.581 31.2039C112.597 31.359 112.728 31.4784 112.884 31.4784H114.506C114.68 31.4784 114.822 31.3321 114.811 31.1564C114.654 28.4568 112.191 26.9486 109.251 26.9486C105.953 26.9486 103.764 28.7107 103.764 31.2334C103.764 33.538 105.549 34.5422 107.684 34.9487L110.631 35.4912C112.253 35.79 112.794 36.3325 112.794 37.3622C112.794 39.0167 112.227 39.7221 109.442 39.7221C106.658 39.7221 105.888 38.9166 105.709 37.2841C105.692 37.1288 105.562 37.0109 105.406 37.0109H103.773C103.602 37.0109 103.463 37.1533 103.466 37.3251C103.544 40.2337 106.173 41.6752 109.305 41.6752C112.711 41.6752 115.062 39.9132 115.062 37.2545C115.062 34.923 113.277 33.865 110.98 33.4585ZM122.796 39.6682C125.823 39.6682 126.39 39.0179 126.39 36.0888V27.6399C126.39 27.4706 126.527 27.3334 126.696 27.3334H128.356C128.524 27.3334 128.661 27.4706 128.661 27.6399V40.9905C128.661 41.1596 128.524 41.297 128.356 41.297H126.696C126.527 41.297 126.39 41.1596 126.39 40.9905V40.4082C126.384 39.9939 125.956 39.7875 125.66 40.0773C124.797 41.0263 123.445 41.6765 121.634 41.6765C118.849 41.6765 116.957 40.185 116.957 36.8494V27.6386C116.957 27.4693 117.093 27.3321 117.263 27.3321H118.922C119.091 27.3321 119.227 27.4693 119.227 27.6386V36.2247C119.227 39.1526 119.768 39.6682 122.796 39.6682ZM141.939 27.3295V25.5392C141.939 24.8351 142.508 24.2644 143.21 24.2644H144.445C144.613 24.2644 144.75 24.1272 144.75 23.9579V22.619C144.75 22.4497 144.613 22.3125 144.445 22.3125H143.589C141.156 22.3125 139.669 23.6681 139.669 26.0009V27.3295H137.87C136.276 27.3321 135.024 27.5514 134.19 28.5504C133.883 28.8416 133.459 28.6236 133.459 28.2004V27.6373C133.459 27.468 133.323 27.3308 133.154 27.3308H131.494C131.326 27.3308 131.189 27.468 131.189 27.6373V40.9878C131.189 41.1571 131.326 41.2944 131.494 41.2944H133.154C133.323 41.2944 133.459 41.1571 133.459 40.9878V32.6184C133.459 29.8521 134.162 29.2019 137.19 29.2019H139.669V40.9891C139.669 41.1584 139.805 41.2957 139.974 41.2957H141.634C141.802 41.2957 141.939 41.1584 141.939 40.9891V29.2019H144.448C144.616 29.2019 144.753 29.0647 144.753 28.8954V27.6386C144.753 27.4693 144.616 27.3321 144.448 27.3321H141.939V27.3295ZM60.4014 37.8111C60.46 38.0562 60.6787 38.2293 60.9295 38.2293H60.9307C61.1802 38.2293 61.3971 38.0587 61.4575 37.8162L65.2632 22.5459C65.2976 22.4087 65.4208 22.3125 65.561 22.3125H67.4611C67.6641 22.3125 67.8127 22.5049 67.7614 22.7024L62.9734 41.0711C62.9389 41.2007 62.8229 41.2917 62.6882 41.2917H59.2992C59.1625 41.2917 59.0437 41.1982 59.0091 41.0661L55.0318 25.7008C54.9704 25.461 54.7543 25.293 54.5064 25.293H54.4718C54.225 25.293 54.009 25.461 53.9464 25.7008L49.9704 41.0661C49.9358 41.1994 49.8168 41.2917 49.6801 41.2917H46.2909C46.1567 41.2917 46.0391 41.2007 46.0058 41.0711L41.218 22.7024C41.1668 22.5049 41.3151 22.3125 41.5185 22.3125H43.4182C43.5588 22.3125 43.6816 22.4087 43.7162 22.5459L47.5208 37.8162C47.5808 38.0587 47.797 38.2293 48.0475 38.2293C48.2982 38.2293 48.5167 38.0562 48.5756 37.8111L52.2333 22.5485C52.2664 22.41 52.3892 22.3125 52.5311 22.3125H56.4471C56.5889 22.3125 56.7117 22.41 56.7449 22.5485L60.4014 37.8111Z" clip-rule="evenodd" fill-rule="evenodd"></path>
</g>
</g>
<defs>
<clipPath id="clip0_18823_1934">
<rect transform="translate(0 22)" fill="white" height="20" width="145"></rect>
</clipPath>
</defs>
</svg>
