<svg xmlns="http://www.w3.org/2000/svg" fill="none" viewBox="0 0 127 64" height="64" width="127">
<g clip-path="url(#clip0_18823_1930)">
<path fill="#0D1525" d="M45.8356 25.5056L45.0189 26.3208H44.2023L43.9483 25.2883C43.894 25.0347 43.6581 24.8717 43.386 24.8717H38.16C37.8334 24.8717 37.5793 25.1252 37.5793 25.4151V27.2083C37.5793 27.5163 37.8334 27.7517 38.16 27.7517H41.2447V36.1564H37.6519C37.3253 36.1564 37.0713 36.41 37.0713 36.6998V38.4931C37.0713 38.801 37.3253 39.0365 37.6519 39.0365H48.9564C49.2831 39.0365 49.5371 38.7829 49.5371 38.4931V36.6998C49.5371 36.3919 49.2831 36.1564 48.9564 36.1564H44.8011V30.2152C44.8011 28.5487 45.7809 27.6793 47.7044 27.6793H50.8256C51.1523 27.6793 51.4063 27.4257 51.4063 27.1359V25.1615C51.4063 24.8536 51.1523 24.6181 50.8256 24.6181H48.9748C47.6136 24.6 46.5434 24.8536 45.8356 25.5056Z"></path>
<path fill="#0D1525" d="M59.9345 24.5977C55.3617 24.5977 52.9121 27.0249 52.9121 31.9517C52.9121 36.8968 55.3436 39.324 59.8437 39.324C63.3278 39.324 65.5776 37.8749 66.1764 35.3933C66.2672 35.0492 65.9767 34.7232 65.6138 34.7232H63.4367C63.2008 34.7232 62.9829 34.8681 62.8921 35.0854C62.5111 36.1541 61.4223 36.6613 59.9526 36.6613C57.6662 36.6613 56.5774 35.4114 56.4324 32.4952H66.3581C66.9022 27.043 64.6339 24.5977 59.9345 24.5977ZM56.5413 30.2853C56.8861 28.1479 57.9564 27.1517 59.9164 27.1517C62.0031 27.1517 62.9829 28.2566 63.0372 30.2853H56.5413Z"></path>
<path fill="#0D1525" d="M77.5895 24.5977C76.3556 24.5977 75.4662 24.8694 74.777 25.5214L73.9241 26.3366H73.1436L72.8535 25.286C72.7807 25.0505 72.5629 24.8694 72.2908 24.8694H70.6579C70.3312 24.8694 70.0771 25.1229 70.0771 25.4128V43.9611C70.0771 44.269 70.3312 44.5044 70.6579 44.5044H73.0532C73.3796 44.5044 73.6336 44.2509 73.6336 43.9611V39.9399L73.3253 37.7843L74.1235 37.6032L74.9763 38.4183C75.6479 39.0342 76.4646 39.3421 77.6803 39.3421C81.2001 39.3421 83.3234 36.9149 83.3234 31.9699C83.3053 27.0249 81.2001 24.5977 77.5895 24.5977ZM76.4099 36.3715C74.6134 36.3715 73.6155 35.4477 73.6155 33.6907V30.2129C73.6155 28.4558 74.5953 27.5321 76.4099 27.5321C78.6055 27.5321 79.6034 28.9087 79.6034 31.9337C79.5853 34.9948 78.6055 36.3715 76.4099 36.3715Z"></path>
<path fill="#0D1525" d="M127 27.2055V25.4123C127 25.1044 126.746 24.8689 126.419 24.8689H120.122V21.391C120.122 21.0831 119.868 20.8477 119.542 20.8477H117.147C116.82 20.8477 116.566 21.1012 116.566 21.391V24.8689H112.846C112.52 24.8689 112.266 25.1224 112.266 25.4123V27.2055C112.266 27.5135 112.52 27.7489 112.846 27.7489H116.566V33.0743C116.566 37.1499 118.489 39.0337 122.627 39.0337H126.002C126.328 39.0337 126.583 38.7801 126.583 38.4903V36.697C126.583 36.3891 126.328 36.1536 126.002 36.1536H123.171C120.921 36.1536 120.122 35.266 120.122 33.0562V27.767H126.419C126.746 27.7489 127 27.4953 127 27.2055Z"></path>
<path fill="#0D1525" d="M97.2968 36.1554H93.5949V19.9438C93.5949 19.6359 93.3409 19.4004 93.0146 19.4004H85.7562C85.4295 19.4004 85.1755 19.654 85.1755 19.9438V21.7371C85.1755 22.045 85.4295 22.2804 85.7562 22.2804H90.0385V36.1554H85.2302C84.9034 36.1554 84.6494 36.409 84.6494 36.6989V38.4921C84.6494 38.8 84.9034 39.0355 85.2302 39.0355H97.2968C97.6231 39.0355 97.8776 38.7819 97.8776 38.4921V36.6989C97.8776 36.3909 97.6231 36.1554 97.2968 36.1554Z"></path>
<path fill="#0D1525" d="M108.075 19.4004H104.809C104.483 19.4004 104.229 19.654 104.229 19.9438V22.2442C104.229 22.5521 104.483 22.7876 104.809 22.7876H108.075C108.402 22.7876 108.656 22.5341 108.656 22.2442V19.9438C108.638 19.6359 108.384 19.4004 108.075 19.4004Z"></path>
<path fill="#0D1525" d="M108.508 36.1559V25.4145C108.508 25.1066 108.254 24.8711 107.927 24.8711H100.615C100.288 24.8711 100.034 25.1247 100.034 25.4145V27.2078C100.034 27.5157 100.288 27.7511 100.615 27.7511H104.952V36.1559H100.615C100.288 36.1559 100.034 36.4094 100.034 36.6992V38.4925C100.034 38.8004 100.288 39.0359 100.615 39.0359H112.954C113.28 39.0359 113.534 38.7823 113.534 38.4925V36.6992C113.534 36.3913 113.28 36.1559 112.954 36.1559H108.508Z"></path>
<path fill="#F5640C" d="M12.5748 26.9372H1.88713C0.834694 26.9372 0 26.0859 0 25.0534V18.7862C0 17.7356 0.852836 16.9023 1.88713 16.9023H10.6877C11.7401 16.9023 12.5748 17.7537 12.5748 18.7862V26.9372Z"></path>
<path fill="#F5640C" d="M23.2629 36.971H12.5752V26.918H23.2629C24.2972 26.918 25.15 27.7693 25.15 28.8018V35.0872C25.15 36.1378 24.2972 36.971 23.2629 36.971Z"></path>
<path fill="#F5640C" d="M10.6877 47.0238H1.88713C0.852836 47.0238 0 46.1724 0 45.1399V38.8545C0 37.822 0.852836 36.9707 1.88713 36.9707H12.5748V45.1399C12.5748 46.1724 11.722 47.0238 10.6877 47.0238Z"></path>
</g>
<defs>
<clipPath id="clip0_18823_1930">
<rect transform="translate(0 16)" fill="white" height="32" width="127"></rect>
</clipPath>
</defs>
</svg>
