<svg xmlns="http://www.w3.org/2000/svg" width="266" height="260" fill="none">
  <g filter="url(#a)">
    <path fill="#fff" d="M251.8 196.8a21 21 0 0 1-1.1 16.4 27 27 0 0 1-7.7 9.2c-3.9 3-8.7 5.7-14.5 8.2-7 3-15.5 5.7-19.4 6.7-9.9 2.6-19.5 4.2-29.1 4.3-13.9.1-25.8-3.1-34.3-11.5a110.2 110.2 0 0 1-26 .1c-8.4 8.3-20.3 11.5-34.1 11.4a120 120 0 0 1-29.2-4.3 170 170 0 0 1-19.3-6.7c-5.8-2.5-10.7-5.1-14.5-8.2a26.7 26.7 0 0 1-7.7-9.2c-2.6-5-3-11-1.1-16.4-1.8-4.2-2.3-9-.9-14.4.7-2.4 1.7-4.6 3-6.6-.2-1-.5-2.1-.6-3.3a22 22 0 0 1 6-18.3 21 21 0 0 1 7.2-5.2A106.5 106.5 0 0 1 204.1 46a106 106 0 0 1 32.2 102.6c2.8 1.1 5.4 3 8 5.6a22.1 22.1 0 0 1 5.3 21.6c1.3 2 2.4 4.2 3 6.6 1.4 5.4 1 10.2-.8 14.4Z"/>
  </g>
  <path fill="url(#b)" d="M132.8 213.1a88.5 88.5 0 1 0 0-177 88.5 88.5 0 0 0 0 177Z"/>
  <path fill="#FF9D00" d="M221.3 124.6a88.5 88.5 0 1 0-177 0 88.5 88.5 0 0 0 177 0Zm-187.2 0a98.7 98.7 0 1 1 197.4 0 98.7 98.7 0 0 1-197.4 0Z"/>
  <path fill="#32343D" d="M161.5 100.5c3.3 1.2 4.6 7.8 7.9 6.1a12.7 12.7 0 1 0-17.3-5.3c1.6 3 6.5-1.8 9.4-.8ZM101.5 100.5c-3.2 1.2-4.5 7.8-7.8 6.1a12.7 12.7 0 1 1 17.2-5.3c-1.5 3-6.5-1.8-9.4-.8ZM132.1 113c-25 0-33 22.4-33 33.8 0 6 4 4.1 10.3 1 6-3 14-7 22.7-7 18.3 0 33.2 17.5 33.2 6 0-11.4-8.1-33.7-33.2-33.7Z"/>
  <mask id="c" width="67" height="38" x="99" y="113" maskUnits="userSpaceOnUse" style="mask-type:alpha">
    <path fill="#fff" d="M132.1 113c-25 0-33 22.4-33 33.8 0 6 4 4.1 10.3 1 6-3 14-7 22.7-7 18.3 0 33.2 17.5 33.2 6 0-11.4-8.1-33.7-33.2-33.7Z"/>
  </mask>
  <g mask="url(#c)">
    <path fill="#FF323D" d="M132.8 176.3a22 22 0 0 0 6.7-43.2c-2.1-.6-4.4 2.9-6.7 2.9-2.2 0-4.3-3.6-6.3-3a22.1 22.1 0 0 0 6.3 43.3Z"/>
  </g>
  <path fill="#FFD21E" d="M192.6 112.5a8.3 8.3 0 1 0 0-16.5 8.3 8.3 0 0 0 0 16.5ZM74.2 112.5a8.3 8.3 0 1 0 0-16.5 8.3 8.3 0 0 0 0 16.5Z" style="mix-blend-mode:multiply"/>
  <path fill="#FF9D00" d="M57.1 140.5c-4 0-7.8 1.7-10.3 4.8-1.6 2-3.3 5-3.4 9.6a18 18 0 0 0-5-.8c-4 0-7.5 1.5-10 4.3a14.8 14.8 0 0 0-2 17.8 13.5 13.5 0 0 0-4.6 7.2 15 15 0 0 0 2 12l-.6 1c-2 3.7-2 8-.3 11.8 2.6 6 9 10.6 21.7 15.6 7.8 3 15 5 15 5.1a113 113 0 0 0 28 4c14.8 0 25.5-4.5 31.6-13.5 10-14.5 8.5-27.8-4.3-40.6-7-7-11.8-17.5-12.7-19.8-2-6.8-7.2-14.3-16-14.3a14.1 14.1 0 0 0-11.6 6.3c-2.6-3.2-5.1-5.8-7.4-7.2a18.9 18.9 0 0 0-10-3.3Zm0 10.2a9 9 0 0 1 4.7 1.7c5.4 3.4 15.9 21.5 19.7 28.5a6.2 6.2 0 0 0 5.5 3.3c4 0 7-3.9.4-8.8-10-7.5-6.5-19.7-1.8-20.5h.7c4.3 0 6.2 7.4 6.2 7.4s5.6 14.1 15.2 23.7 10.1 17.3 3.1 27.6c-4.8 7-14 9.2-23.3 9.2-9.7 0-19.7-2.3-25.3-3.8-.3 0-34.2-9.6-30-17.8.8-1.4 2-2 3.5-2 6 0 17 9 21.8 9 1 0 1.8-.4 2.1-1.5 2-7.2-30.7-10.3-28-20.8.6-1.8 1.9-2.6 3.7-2.6 8 0 26 14.1 29.8 14.1.3 0 .5 0 .6-.2 1.9-3 .8-5.2-12.5-13.3C40 176 30.6 171 36 165.3c.6-.7 1.5-1 2.5-1 8.1 0 27.2 17.4 27.2 17.4s5.1 5.3 8.3 5.3c.7 0 1.3-.3 1.7-1 2.2-3.7-20.5-21-21.8-28-.9-4.8.6-7.3 3.3-7.3Z"/>
  <path fill="#FFD21E" d="M110.8 213.6c7-10.3 6.5-18-3-27.6-9.7-9.6-15.3-23.7-15.3-23.7s-2-8.1-6.9-7.4c-4.7.8-8.2 13 1.8 20.5 10 7.4-2 12.5-5.9 5.5-3.8-7-14.3-25-19.7-28.5-5.5-3.4-9.3-1.5-8 5.6 1.3 7 24 24.3 21.8 28-2.2 3.8-10-4.3-10-4.3s-24.4-22.2-29.7-16.4c-5.3 5.7 4 10.6 17.3 18.6 13.3 8 14.4 10.2 12.5 13.3-1.9 3-31.3-21.8-34-11.3-2.8 10.5 30 13.6 28 20.8-2.1 7.3-23.1-13.7-27.4-5.5-4.3 8.2 29.6 17.8 30 17.8 10.9 2.9 38.8 9 48.5-5.4Z"/>
  <path fill="#FF9D00" d="M209.7 140.5c4.1 0 7.8 1.7 10.4 4.8 1.5 2 3.2 5 3.3 9.6a18 18 0 0 1 5-.8c4 0 7.5 1.5 10 4.3a14.8 14.8 0 0 1 2 17.8c2.2 1.8 3.8 4.2 4.6 7.2a15 15 0 0 1-2 12l.6 1c2 3.7 2 8 .3 11.8-2.6 6-9 10.6-21.7 15.6-7.8 3-15 5-15 5.1-10.4 2.7-19.8 4-27.9 4-14.9 0-25.6-4.5-31.7-13.5-10-14.5-8.5-27.8 4.3-40.6 7-7 11.8-17.5 12.8-19.8 2-6.8 7.2-14.3 15.9-14.3a14.1 14.1 0 0 1 11.7 6.3c2.5-3.2 5-5.8 7.3-7.2 3.4-2.2 6.8-3.3 10-3.3Zm0 10.2a9 9 0 0 0-4.7 1.7c-5.4 3.4-15.9 21.5-19.7 28.5a6.2 6.2 0 0 1-5.5 3.3c-4 0-7-3.9-.3-8.8 10-7.5 6.4-19.7 1.7-20.5a4 4 0 0 0-.6 0c-4.4 0-6.3 7.4-6.3 7.4s-5.6 14.1-15.2 23.7-10.1 17.3-3.1 27.6c4.8 7 14 9.2 23.3 9.2 9.7 0 19.7-2.3 25.3-3.8.3 0 34.3-9.6 30-17.8-.8-1.4-2-2-3.5-2-6 0-17 9-21.8 9-1 0-1.8-.4-2.1-1.5-2-7.2 30.7-10.3 28-20.8-.5-1.8-1.8-2.6-3.7-2.6-8 0-26 14.1-29.8 14.1-.2 0-.5 0-.6-.2-1.9-3-.8-5.2 12.5-13.3 13.3-8 22.6-12.9 17.3-18.6-.6-.7-1.5-1-2.5-1-8 0-27.2 17.4-27.2 17.4s-5.1 5.3-8.2 5.3c-.8 0-1.4-.3-1.8-1-2.2-3.7 20.5-21 21.8-28 .9-4.8-.6-7.3-3.3-7.3Z"/>
  <path fill="#FFD21E" d="M156 213.6c-7-10.3-6.5-18 3.1-27.6a80.5 80.5 0 0 0 15.2-23.7s2.1-8.1 6.9-7.4c4.7.8 8.2 13-1.7 20.5-10 7.4 2 12.5 5.8 5.5s14.3-25 19.7-28.5c5.5-3.4 9.3-1.5 8 5.6-1.3 7-24 24.3-21.8 28 2.2 3.8 10-4.3 10-4.3s24.4-22.2 29.7-16.4c5.3 5.7-4 10.6-17.3 18.6-13.3 8-14.3 10.2-12.5 13.3 2 3 31.3-21.8 34-11.3 2.8 10.5-30 13.6-27.9 20.8 2 7.3 23-13.7 27.4-5.5 4.3 8.2-29.7 17.8-30 17.8-11 2.9-38.9 9-48.6-5.4Z"/>
  <defs>
    <linearGradient id="b" x1="132.8" x2="132.8" y1="-8.8" y2="105.9" gradientUnits="userSpaceOnUse">
      <stop stop-color="#1E78FF"/>
      <stop offset="1" stop-color="#FFD21E"/>
    </linearGradient>
    <filter id="a" width="265.3" height="247.3" x=".1" y="6.3" color-interpolation-filters="sRGB" filterUnits="userSpaceOnUse">
      <feFlood flood-opacity="0" result="BackgroundImageFix"/>
      <feColorMatrix in="SourceAlpha" result="hardAlpha" values="0 0 0 0 0 0 0 0 0 0 0 0 0 0 0 0 0 0 127 0"/>
      <feOffset/>
      <feGaussianBlur stdDeviation="6"/>
      <feComposite in2="hardAlpha" operator="out"/>
      <feColorMatrix values="0 0 0 0 0 0 0 0 0 0 0 0 0 0 0 0 0 0 0.1 0"/>
      <feBlend in2="BackgroundImageFix" result="effect1_dropShadow_759_300"/>
      <feBlend in="SourceGraphic" in2="effect1_dropShadow_759_300" result="shape"/>
    </filter>
  </defs>
</svg>