<svg width="20" height="20" viewBox="0 0 20 20" fill="none" xmlns="http://www.w3.org/2000/svg">
<path fill-rule="evenodd" clip-rule="evenodd" d="M12.9505 3.04975C15.6835 5.78375 15.6835 10.2157 12.9505 12.9497C10.2165 15.6837 5.7845 15.6837 3.0505 12.9497C0.3165 10.2157 0.3165 5.78375 3.0505 3.04975C5.7845 0.31675 10.2165 0.31675 12.9505 3.04975Z" stroke="#344854" stroke-width="2" stroke-linecap="round" stroke-linejoin="round"/>
<path d="M14.0518 11.5C14.0518 11.5 13.1418 13.073 14.1188 14.052" stroke="#344854" stroke-width="2" stroke-linecap="round" stroke-linejoin="round"/>
<path d="M11.5 14.052C11.5 14.052 13.073 13.137 14.052 14.114" stroke="#344854" stroke-width="2" stroke-linecap="round" stroke-linejoin="round"/>
<path fill-rule="evenodd" clip-rule="evenodd" d="M17.9921 18.8166L13.2261 13.2266L18.8161 17.9926C18.8161 17.9926 19.2061 18.3806 18.8161 18.8166C18.3811 19.2066 17.9921 18.8166 17.9921 18.8166Z" stroke="#344854" stroke-width="2" stroke-linecap="round" stroke-linejoin="round"/>
</svg>
