<svg width="30" height="30" viewBox="0 0 30 30" fill="none" xmlns="http://www.w3.org/2000/svg">
<path fill-rule="evenodd" clip-rule="evenodd" d="M30 15C30 6.70833 23.2917 0 15 0C6.70833 0 0 6.75 0 15C0 23.2917 6.70833 30 15 30C23.2917 30 30 23.2917 30 15ZM9.15244 9.99823C10.1594 9.99823 10.9758 9.1819 10.9758 8.1749C10.9758 7.1679 10.1594 6.35156 9.15244 6.35156C8.14544 6.35156 7.3291 7.1679 7.3291 8.1749C7.3291 9.1819 8.14544 9.99823 9.15244 9.99823ZM12.6965 21.4947V11.3789H15.7115V12.7622H15.754C16.1731 11.9681 17.1981 11.1289 18.7273 11.1289C21.9123 11.1289 22.499 13.2231 22.499 15.9481V21.4956H19.3565V16.5756C19.3565 15.4031 19.3365 13.8939 17.7223 13.8939C16.0856 13.8939 15.8373 15.1722 15.8373 16.4922V21.4947H12.6965ZM10.724 11.3789H7.57812V21.4947H10.724V11.3789Z" fill="#1C2B33"/>
</svg>
