<svg width="10" height="74" viewBox="0 0 10 74" fill="none" xmlns="http://www.w3.org/2000/svg">
<path d="M5.01036 74.0002C4.54928 74.0002 4.18701 73.6368 4.18701 73.1744V1.04055C4.18701 0.578155 4.54928 0.214844 5.01036 0.214844C5.47143 0.214844 5.8337 0.578155 5.8337 1.04055V73.1744C5.8337 73.6368 5.47143 74.0002 5.01036 74.0002Z" fill="#344854"/>
<path d="M9.22604 5.82951C9.02843 5.82951 8.79787 5.76346 8.6332 5.59831L5.01037 1.96519L1.38754 5.59831C1.05819 5.9286 0.531236 5.9286 0.234823 5.59831C-0.0615905 5.26803 -0.0945253 4.73958 0.234823 4.44232L4.41757 0.247713C4.74691 -0.0825709 5.27387 -0.0825709 5.57028 0.247713L9.75299 4.44232C10.0823 4.7726 10.0823 5.30106 9.75299 5.59831C9.62125 5.73043 9.42365 5.82951 9.22604 5.82951Z" fill="#344854"/>
</svg>
