<svg width="30" height="30" viewBox="0 0 30 30" fill="none" xmlns="http://www.w3.org/2000/svg">
<path d="M15 0C23.2917 0 30 6.70833 30 15C30 23.2917 23.2917 30 15 30C6.70833 30 0 23.2917 0 15C0 6.75 6.70833 0 15 0ZM19 8.70833C17 8.70833 15.375 10.3333 15.375 12.2917C15.375 12.5833 15.4167 12.8333 15.4583 13.125C12.4167 12.9583 9.75 11.5417 7.95834 9.375C7.66667 9.91667 7.45833 10.5 7.45833 11.1667C7.45833 12.4167 8.08333 13.5 9.08333 14.1667C8.5 14.1667 7.91666 14 7.41666 13.7083V13.75C7.41666 15.5 8.66666 16.9167 10.3333 17.25C10.0417 17.3333 9.70833 17.375 9.375 17.375C9.125 17.375 8.91666 17.3333 8.66666 17.2917C9.125 18.7083 10.4583 19.75 12.0833 19.7917C10.8333 20.75 9.25 21.3333 7.54167 21.3333C7.25 21.3333 6.95833 21.3333 6.66667 21.2917C8.25 22.3333 10.1667 22.9167 12.25 22.9167C18.9583 22.9167 22.625 17.4583 22.625 12.7083C22.625 12.5417 22.625 12.4167 22.625 12.25C23.3333 11.75 23.9583 11.125 24.4583 10.375C23.7917 10.6667 23.125 10.8333 22.375 10.9583C23.125 10.5 23.7083 9.83333 23.9583 8.95833C23.25 9.375 22.4583 9.66667 21.625 9.83334C21 9.125 20.0417 8.70833 19 8.70833Z" fill="#1C2B33"/>
</svg>
