<svg width="30" height="30" viewBox="0 0 30 30" fill="none" xmlns="http://www.w3.org/2000/svg">
<path fill-rule="evenodd" clip-rule="evenodd" d="M15 0C23.2917 0 30 6.70833 30 15C30 23.2917 23.2917 30 15 30C6.70833 30 0 23.2917 0 15C0 6.75 6.70833 0 15 0ZM21.2509 10.3282C21.9391 10.5092 22.4818 11.0415 22.6655 11.7174C23 12.9434 23 15.5 23 15.5C23 15.5 23 18.0575 22.6655 19.2826C22.4818 19.9585 21.9391 20.4908 21.2509 20.6718C20.0036 21 15 21 15 21C15 21 9.99727 21 8.74909 20.6718C8.06091 20.4908 7.51818 19.9585 7.33455 19.2826C7 18.0566 7 15.5 7 15.5C7 15.5 7 12.9434 7.33455 11.7174C7.51818 11.0415 8.06091 10.5092 8.74909 10.3282C9.99636 10 15 10 15 10C15 10 20.0036 10 21.2509 10.3282ZM17.5455 15.5L13.3636 13.1785V17.8215L17.5455 15.5Z" fill="#1C2B33"/>
</svg>
